<?xml version="1.0" encoding="UTF-8"?>
<!DOCTYPE svg PUBLIC "-//W3C//DTD SVG 1.1//EN" "http://www.w3.org/Graphics/SVG/1.1/DTD/svg11.dtd">
<svg xmlns="http://www.w3.org/2000/svg" version="1.1" width="452px" height="322px" style="shape-rendering:geometricPrecision; text-rendering:geometricPrecision; image-rendering:optimizeQuality; fill-rule:evenodd; clip-rule:evenodd" xmlns:xlink="http://www.w3.org/1999/xlink">
<g><path style="opacity:1" fill="#fefefe" d="M -0.5,-0.5 C 150.167,-0.5 300.833,-0.5 451.5,-0.5C 451.5,106.833 451.5,214.167 451.5,321.5C 300.833,321.5 150.167,321.5 -0.5,321.5C -0.5,214.167 -0.5,106.833 -0.5,-0.5 Z"/></g>
<g><path style="opacity:1" fill="#e8f4f8" d="M 263.5,90.5 C 255.203,90.1599 247.203,91.4932 239.5,94.5C 239.5,93.5 239.5,92.5 239.5,91.5C 243.21,92.028 246.377,91.028 249,88.5C 253.98,89.0928 258.814,89.7595 263.5,90.5 Z"/></g>
<g><path style="opacity:1" fill="#b7ced8" d="M 266.5,92.5 C 266.5,92.1667 266.5,91.8333 266.5,91.5C 270.475,91.4859 273.808,92.8193 276.5,95.5C 273.167,94.5 269.833,93.5 266.5,92.5 Z"/></g>
<g><path style="opacity:1" fill="#91abbe" d="M 263.5,90.5 C 264.209,91.404 265.209,91.7373 266.5,91.5C 266.5,91.8333 266.5,92.1667 266.5,92.5C 264.833,92.5 263.167,92.5 261.5,92.5C 257.298,92.1832 253.298,92.5166 249.5,93.5C 246.167,94.1667 242.833,94.8333 239.5,95.5C 239.5,95.1667 239.5,94.8333 239.5,94.5C 247.203,91.4932 255.203,90.1599 263.5,90.5 Z"/></g>
<g><path style="opacity:1" fill="#b6cddd" d="M 277.5,95.5 C 278.167,95.5 278.833,95.5 279.5,95.5C 280.167,96.5 280.833,97.5 281.5,98.5C 279.596,98.2624 278.262,97.2624 277.5,95.5 Z"/></g>
<g><path style="opacity:1" fill="#93b1c2" d="M 239.5,95.5 C 237.342,97.9929 234.676,99.6595 231.5,100.5C 233.658,98.0071 236.324,96.3405 239.5,95.5 Z"/></g>
<g><path style="opacity:1" fill="#628ba4" d="M 249.5,93.5 C 246.923,94.6353 244.923,96.4687 243.5,99C 240.711,99.2414 238.044,99.908 235.5,101C 230.751,104.411 227.584,108.911 226,114.5C 224.048,115.747 222.215,117.081 220.5,118.5C 220.5,117.833 220.5,117.167 220.5,116.5C 220.5,115.833 220.5,115.167 220.5,114.5C 222.25,113.341 223.25,111.674 223.5,109.5C 223.5,108.833 223.833,108.5 224.5,108.5C 226.587,107.415 227.92,105.749 228.5,103.5C 229.833,102.833 230.833,101.833 231.5,100.5C 234.676,99.6595 237.342,97.9929 239.5,95.5C 242.833,94.8333 246.167,94.1667 249.5,93.5 Z"/></g>
<g><path style="opacity:1" fill="#5788ae" d="M 261.5,92.5 C 262.6,93.5585 263.934,94.3918 265.5,95C 270.325,94.5006 273.659,96.3339 275.5,100.5C 279.04,102.431 282.374,104.598 285.5,107C 283.142,109.471 283.808,110.971 287.5,111.5C 287.662,113.527 287.495,115.527 287,117.5C 285.846,116.257 284.512,115.257 283,114.5C 282.517,113.552 282.351,112.552 282.5,111.5C 281.5,111.5 280.5,111.5 279.5,111.5C 278.5,111.167 277.833,110.5 277.5,109.5C 276.537,106.537 274.537,104.537 271.5,103.5C 266.248,102.177 260.915,101.51 255.5,101.5C 255.657,100.127 255.49,98.7932 255,97.5C 251.349,98.6525 248.849,100.986 247.5,104.5C 246.71,105.401 245.71,106.068 244.5,106.5C 242.011,106.298 239.677,106.798 237.5,108C 236.663,109.011 236.33,110.178 236.5,111.5C 235.325,111.281 234.325,111.614 233.5,112.5C 231.22,116.618 228.72,120.618 226,124.5C 225.832,132.521 225.332,140.521 224.5,148.5C 223.148,150.636 221.482,150.97 219.5,149.5C 218.831,147.369 218.165,145.369 217.5,143.5C 217.454,135.72 218.12,128.054 219.5,120.5C 219.328,119.508 219.662,118.842 220.5,118.5C 222.215,117.081 224.048,115.747 226,114.5C 227.584,108.911 230.751,104.411 235.5,101C 238.044,99.908 240.711,99.2414 243.5,99C 244.923,96.4687 246.923,94.6353 249.5,93.5C 253.298,92.5166 257.298,92.1832 261.5,92.5 Z"/></g>
<g><path style="opacity:1" fill="#628aa6" d="M 277.5,109.5 C 276.395,108.4 275.062,107.733 273.5,107.5C 272.833,107.5 272.167,107.5 271.5,107.5C 269.403,105.518 266.736,104.518 263.5,104.5C 258.297,103.243 252.964,103.243 247.5,104.5C 248.849,100.986 251.349,98.6525 255,97.5C 255.49,98.7932 255.657,100.127 255.5,101.5C 260.915,101.51 266.248,102.177 271.5,103.5C 274.537,104.537 276.537,106.537 277.5,109.5 Z"/></g>
<g><path style="opacity:1" fill="#b1c5d3" d="M 281.5,98.5 C 283.404,98.7376 284.738,99.7376 285.5,101.5C 283.596,101.262 282.262,100.262 281.5,98.5 Z"/></g>
<g><path style="opacity:1" fill="#e8f5fa" d="M 279.5,95.5 C 281.873,96.2943 284.206,97.2943 286.5,98.5C 287.429,99.6888 287.762,101.022 287.5,102.5C 288.833,102.5 290.167,102.5 291.5,102.5C 292.167,104.833 292.833,107.167 293.5,109.5C 293.167,109.5 292.833,109.5 292.5,109.5C 291.581,106.911 289.914,104.911 287.5,103.5C 286.5,103.167 285.833,102.5 285.5,101.5C 284.738,99.7376 283.404,98.7376 281.5,98.5C 280.833,97.5 280.167,96.5 279.5,95.5 Z"/></g>
<g><path style="opacity:1" fill="#9ab5c8" d="M 263.5,104.5 C 256.87,103.91 250.536,104.91 244.5,107.5C 244.5,107.167 244.5,106.833 244.5,106.5C 245.71,106.068 246.71,105.401 247.5,104.5C 252.964,103.243 258.297,103.243 263.5,104.5 Z"/></g>
<g><path style="opacity:1" fill="#a0bac9" d="M 287.5,103.5 C 289.914,104.911 291.581,106.911 292.5,109.5C 290.086,108.089 288.419,106.089 287.5,103.5 Z"/></g>
<g><path style="opacity:1" fill="#5f8aa8" d="M 261.5,92.5 C 263.167,92.5 264.833,92.5 266.5,92.5C 269.833,93.5 273.167,94.5 276.5,95.5C 276.833,95.5 277.167,95.5 277.5,95.5C 278.262,97.2624 279.596,98.2624 281.5,98.5C 282.262,100.262 283.596,101.262 285.5,101.5C 285.833,102.5 286.5,103.167 287.5,103.5C 288.419,106.089 290.086,108.089 292.5,109.5C 292.75,111.674 293.75,113.341 295.5,114.5C 295.5,114.833 295.5,115.167 295.5,115.5C 295.927,118.01 296.593,120.343 297.5,122.5C 298.455,128.409 298.789,134.409 298.5,140.5C 297.908,143.127 297.575,145.794 297.5,148.5C 296.094,148.973 295.427,149.973 295.5,151.5C 294.833,153.167 294.167,154.833 293.5,156.5C 292.833,156.833 292.167,157.167 291.5,157.5C 291.523,153.458 292.689,149.792 295,146.5C 295.667,138.833 295.667,131.167 295,123.5C 294,120.833 293,118.167 292,115.5C 290.272,121.794 290.105,128.128 291.5,134.5C 290.861,137.475 290.361,140.475 290,143.5C 289.667,142.833 289.333,142.167 289,141.5C 288.722,142.416 288.222,143.082 287.5,143.5C 288.702,138.023 288.702,132.689 287.5,127.5C 287.5,127.167 287.5,126.833 287.5,126.5C 286.598,121.019 283.931,116.685 279.5,113.5C 279.5,112.833 279.5,112.167 279.5,111.5C 280.5,111.5 281.5,111.5 282.5,111.5C 282.351,112.552 282.517,113.552 283,114.5C 284.512,115.257 285.846,116.257 287,117.5C 287.495,115.527 287.662,113.527 287.5,111.5C 283.808,110.971 283.142,109.471 285.5,107C 282.374,104.598 279.04,102.431 275.5,100.5C 273.659,96.3339 270.325,94.5006 265.5,95C 263.934,94.3918 262.6,93.5585 261.5,92.5 Z"/></g>
<g><path style="opacity:1" fill="#a2becd" d="M 228.5,103.5 C 227.92,105.749 226.587,107.415 224.5,108.5C 225.08,106.251 226.413,104.585 228.5,103.5 Z"/></g>
<g><path style="opacity:1" fill="#e8f5f9" d="M 263.5,104.5 C 266.736,104.518 269.403,105.518 271.5,107.5C 264.232,106.489 257.065,106.489 250,107.5C 246.832,109.725 243.332,111.059 239.5,111.5C 241.139,110.527 242.473,109.194 243.5,107.5C 243.833,107.5 244.167,107.5 244.5,107.5C 250.536,104.91 256.87,103.91 263.5,104.5 Z"/></g>
<g><path style="opacity:1" fill="#a5c0d2" d="M 273.5,107.5 C 275.062,107.733 276.395,108.4 277.5,109.5C 277.833,110.5 278.5,111.167 279.5,111.5C 279.5,112.167 279.5,112.833 279.5,113.5C 277.215,111.882 275.215,109.882 273.5,107.5 Z"/></g>
<g><path style="opacity:1" fill="#c4d5df" d="M 223.5,109.5 C 223.25,111.674 222.25,113.341 220.5,114.5C 220.557,113.391 220.89,112.391 221.5,111.5C 221.5,110.167 222.167,109.5 223.5,109.5 Z"/></g>
<g><path style="opacity:1" fill="#abc1d3" d="M 292.5,109.5 C 292.833,109.5 293.167,109.5 293.5,109.5C 294.537,110.93 295.204,112.597 295.5,114.5C 293.75,113.341 292.75,111.674 292.5,109.5 Z"/></g>
<g><path style="opacity:1" fill="#b4cbd8" d="M 243.5,107.5 C 242.473,109.194 241.139,110.527 239.5,111.5C 237.833,113.833 235.833,115.833 233.5,117.5C 235.51,112.79 238.843,109.456 243.5,107.5 Z"/></g>
<g><path style="opacity:1" fill="#c1d6e2" d="M 279.5,113.5 C 283.931,116.685 286.598,121.019 287.5,126.5C 284.834,122.176 282.168,117.842 279.5,113.5 Z"/></g>
<g><path style="opacity:1" fill="#f1faf9" d="M 197.5,127.5 C 196.833,127.5 196.167,127.5 195.5,127.5C 191.833,127.5 188.167,127.5 184.5,127.5C 184.167,127.5 183.833,127.5 183.5,127.5C 183.5,126.167 183.5,124.833 183.5,123.5C 186.601,123.308 189.601,122.642 192.5,121.5C 194.795,122.432 197.129,123.265 199.5,124C 197.833,124.333 196.167,124.667 194.5,125C 195.942,125.377 196.942,126.21 197.5,127.5 Z"/></g>
<g><path style="opacity:1" fill="#8ca9b5" d="M 295.5,115.5 C 297.104,116.287 297.771,117.62 297.5,119.5C 297.5,120.5 297.5,121.5 297.5,122.5C 296.593,120.343 295.927,118.01 295.5,115.5 Z"/></g>
<g><path style="opacity:1" fill="#8ca6b8" d="M 231.5,120.5 C 231.245,122.967 230.245,124.967 228.5,126.5C 228.755,124.033 229.755,122.033 231.5,120.5 Z"/></g>
<g><path style="opacity:1" fill="#bdd4e3" d="M 220.5,116.5 C 220.5,117.167 220.5,117.833 220.5,118.5C 219.662,118.842 219.328,119.508 219.5,120.5C 218.833,121.833 218.167,123.167 217.5,124.5C 217.023,121.083 218.023,118.416 220.5,116.5 Z"/></g>
<g><path style="opacity:1" fill="#afc6d1" d="M 297.5,119.5 C 298.41,121.019 299.243,122.685 300,124.5C 300.781,129.917 300.615,135.25 299.5,140.5C 299.167,140.5 298.833,140.5 298.5,140.5C 298.789,134.409 298.455,128.409 297.5,122.5C 297.5,121.5 297.5,120.5 297.5,119.5 Z"/></g>
<g><path style="opacity:1" fill="#fdfdf8" d="M 198.5,127.5 C 200.167,127.5 201.833,127.5 203.5,127.5C 202.965,138.814 203.298,150.148 204.5,161.5C 203.201,163.412 202.201,165.412 201.5,167.5C 199.228,169.808 198.894,172.475 200.5,175.5C 201.5,175.5 202.5,175.5 203.5,175.5C 203.807,177.446 203.807,179.113 203.5,180.5C 200.58,178.972 198.914,176.639 198.5,173.5C 199.78,158.153 199.78,142.82 198.5,127.5 Z"/></g>
<g><path style="opacity:1" fill="#698fa9" d="M 244.5,106.5 C 244.5,106.833 244.5,107.167 244.5,107.5C 244.167,107.5 243.833,107.5 243.5,107.5C 238.843,109.456 235.51,112.79 233.5,117.5C 232.599,118.29 231.932,119.29 231.5,120.5C 229.755,122.033 228.755,124.033 228.5,126.5C 228.666,134.84 228.5,143.173 228,151.5C 225.159,153.504 221.993,154.004 218.5,153C 217.944,152.617 217.611,152.117 217.5,151.5C 217.5,148.833 217.5,146.167 217.5,143.5C 218.165,145.369 218.831,147.369 219.5,149.5C 221.482,150.97 223.148,150.636 224.5,148.5C 225.332,140.521 225.832,132.521 226,124.5C 228.72,120.618 231.22,116.618 233.5,112.5C 234.325,111.614 235.325,111.281 236.5,111.5C 236.33,110.178 236.663,109.011 237.5,108C 239.677,106.798 242.011,106.298 244.5,106.5 Z"/></g>
<g><path style="opacity:1" fill="#8aa6bc" d="M 219.5,120.5 C 218.12,128.054 217.454,135.72 217.5,143.5C 217.5,146.167 217.5,148.833 217.5,151.5C 216.513,146.695 216.179,141.695 216.5,136.5C 216.183,132.298 216.517,128.298 217.5,124.5C 218.167,123.167 218.833,121.833 219.5,120.5 Z"/></g>
<g><path style="opacity:1" fill="#e9fcfd" d="M 182.5,127.5 C 182.17,143.675 182.504,159.675 183.5,175.5C 183.557,176.609 183.89,177.609 184.5,178.5C 184.5,178.833 184.5,179.167 184.5,179.5C 183.5,179.5 182.5,179.5 181.5,179.5C 181.17,161.992 181.503,144.659 182.5,127.5 Z"/></g>
<g><path style="opacity:1" fill="#c7ebf1" d="M 182.5,127.5 C 182.833,127.5 183.167,127.5 183.5,127.5C 183.833,127.5 184.167,127.5 184.5,127.5C 183.516,143.422 183.183,159.422 183.5,175.5C 182.504,159.675 182.17,143.675 182.5,127.5 Z"/></g>
<g><path style="opacity:1" fill="#51abbd" d="M 191.5,133.5 C 190.851,147.873 191.518,161.873 193.5,175.5C 192.817,177.176 191.483,177.843 189.5,177.5C 188.828,176.733 187.995,176.066 187,175.5C 186.333,162.167 186.333,148.833 187,135.5C 188.192,133.35 189.692,132.683 191.5,133.5 Z"/></g>
<g><path style="opacity:1" fill="#7fb7c2" d="M 184.5,127.5 C 188.167,127.5 191.833,127.5 195.5,127.5C 195.5,128.167 195.5,128.833 195.5,129.5C 191.999,128.203 188.499,128.203 185,129.5C 184.333,144.833 184.333,160.167 185,175.5C 186.049,177.107 187.549,177.773 189.5,177.5C 191.483,177.843 192.817,177.176 193.5,175.5C 194.167,175.5 194.833,175.5 195.5,175.5C 195.443,176.609 195.11,177.609 194.5,178.5C 191.167,178.5 187.833,178.5 184.5,178.5C 183.89,177.609 183.557,176.609 183.5,175.5C 183.183,159.422 183.516,143.422 184.5,127.5 Z"/></g>
<g><path style="opacity:1" fill="#f0fefe" d="M 197.5,127.5 C 197.833,127.5 198.167,127.5 198.5,127.5C 199.78,142.82 199.78,158.153 198.5,173.5C 198.672,174.492 198.338,175.158 197.5,175.5C 197.5,159.5 197.5,143.5 197.5,127.5 Z"/></g>
<g><path style="opacity:1" fill="#d5e5f0" d="M 233.5,117.5 C 233.5,119.5 233.5,121.5 233.5,123.5C 231.52,124.848 230.353,126.848 230,129.5C 229.667,137.167 229.333,144.833 229,152.5C 228.5,153 228,153.5 227.5,154C 224.167,154.667 220.833,154.667 217.5,154C 217,153.5 216.5,153 216,152.5C 215.183,146.984 215.349,141.65 216.5,136.5C 216.179,141.695 216.513,146.695 217.5,151.5C 217.611,152.117 217.944,152.617 218.5,153C 221.993,154.004 225.159,153.504 228,151.5C 228.5,143.173 228.666,134.84 228.5,126.5C 230.245,124.967 231.245,122.967 231.5,120.5C 231.932,119.29 232.599,118.29 233.5,117.5 Z"/></g>
<g><path style="opacity:1" fill="#d3e5f0" d="M 287.5,127.5 C 288.702,132.689 288.702,138.023 287.5,143.5C 286.326,144.514 285.66,145.847 285.5,147.5C 284.094,147.973 283.427,148.973 283.5,150.5C 281.937,151.945 280.604,153.611 279.5,155.5C 278.833,155.5 278.167,155.5 277.5,155.5C 277.5,154.5 277.5,153.5 277.5,152.5C 281.921,151.249 283.588,148.249 282.5,143.5C 283.5,143.5 284.5,143.5 285.5,143.5C 287.262,138.404 287.929,133.07 287.5,127.5 Z"/></g>
<g><path style="opacity:1" fill="#5888ad" d="M 291.5,157.5 C 291.5,158.167 291.5,158.833 291.5,159.5C 291.167,159.5 290.833,159.5 290.5,159.5C 289.127,159.343 287.793,159.51 286.5,160C 282.396,162.317 278.729,165.317 275.5,169C 270.536,169.036 265.869,170.202 261.5,172.5C 259.057,171.888 256.557,171.555 254,171.5C 243.897,173.134 233.73,173.8 223.5,173.5C 218.146,173.431 212.813,173.098 207.5,172.5C 207.5,170.167 207.5,167.833 207.5,165.5C 227.169,165.667 246.836,165.5 266.5,165C 272.069,164.152 277.069,162.319 281.5,159.5C 282.714,156.747 284.214,154.08 286,151.5C 286.333,151.833 286.667,152.167 287,152.5C 287.498,149.518 287.665,146.518 287.5,143.5C 288.222,143.082 288.722,142.416 289,141.5C 289.333,142.167 289.667,142.833 290,143.5C 290.361,140.475 290.861,137.475 291.5,134.5C 290.105,128.128 290.272,121.794 292,115.5C 293,118.167 294,120.833 295,123.5C 295.667,131.167 295.667,138.833 295,146.5C 292.689,149.792 291.523,153.458 291.5,157.5 Z"/></g>
<g><path style="opacity:1" fill="#f3fdfe" d="M 221.5,111.5 C 220.89,112.391 220.557,113.391 220.5,114.5C 220.5,115.167 220.5,115.833 220.5,116.5C 218.023,118.416 217.023,121.083 217.5,124.5C 216.517,128.298 216.183,132.298 216.5,136.5C 215.349,141.65 215.183,146.984 216,152.5C 216.5,153 217,153.5 217.5,154C 220.833,154.667 224.167,154.667 227.5,154C 228,153.5 228.5,153 229,152.5C 229.333,144.833 229.667,137.167 230,129.5C 230.353,126.848 231.52,124.848 233.5,123.5C 230.719,132.152 230.052,140.985 231.5,150C 231.095,154.069 228.929,156.569 225,157.5C 221.943,156.549 218.777,156.216 215.5,156.5C 215.045,154.633 214.378,152.8 213.5,151C 214.575,147.02 214.575,143.02 213.5,139C 214.567,129.172 215.901,120.005 217.5,111.5C 218.833,111.5 220.167,111.5 221.5,111.5 Z"/></g>
<g><path style="opacity:1" fill="#d2e1ed" d="M 298.5,140.5 C 298.833,140.5 299.167,140.5 299.5,140.5C 300.783,147.238 298.783,152.571 293.5,156.5C 294.167,154.833 294.833,153.167 295.5,151.5C 296.906,151.027 297.573,150.027 297.5,148.5C 297.575,145.794 297.908,143.127 298.5,140.5 Z"/></g>
<g><path style="opacity:1" fill="#99b6ca" d="M 285.5,147.5 C 285.573,149.027 284.906,150.027 283.5,150.5C 283.427,148.973 284.094,147.973 285.5,147.5 Z"/></g>
<g><path style="opacity:1" fill="#bee2e8" d="M 195.5,127.5 C 196.167,127.5 196.833,127.5 197.5,127.5C 197.5,143.5 197.5,159.5 197.5,175.5C 197.573,177.027 196.906,178.027 195.5,178.5C 195.167,178.5 194.833,178.5 194.5,178.5C 195.11,177.609 195.443,176.609 195.5,175.5C 196.833,160.167 196.833,144.833 195.5,129.5C 195.5,128.833 195.5,128.167 195.5,127.5 Z"/></g>
<g><path style="opacity:1" fill="#9fb8cc" d="M 297.5,148.5 C 297.573,150.027 296.906,151.027 295.5,151.5C 295.427,149.973 296.094,148.973 297.5,148.5 Z"/></g>
<g><path style="opacity:1" fill="#97b6c1" d="M 277.5,155.5 C 278.167,155.5 278.833,155.5 279.5,155.5C 278.198,157.822 276.198,159.155 273.5,159.5C 274.833,158.167 276.167,156.833 277.5,155.5 Z"/></g>
<g><path style="opacity:1" fill="#a2c7d6" d="M 293.5,156.5 C 293.573,158.027 292.906,159.027 291.5,159.5C 291.5,158.833 291.5,158.167 291.5,157.5C 292.167,157.167 292.833,156.833 293.5,156.5 Z"/></g>
<g><path style="opacity:1" fill="#edf8fa" d="M 271.5,159.5 C 270.167,160.5 268.833,161.5 267.5,162.5C 266.167,162.5 264.833,162.5 263.5,162.5C 244.167,162.5 224.833,162.5 205.5,162.5C 205.5,163.5 205.5,164.5 205.5,165.5C 205.5,168.833 205.5,172.167 205.5,175.5C 203.874,173.058 202.541,170.391 201.5,167.5C 202.201,165.412 203.201,163.412 204.5,161.5C 226.805,162.144 249.139,161.478 271.5,159.5 Z"/></g>
<g><path style="opacity:1" fill="#d0e5ee" d="M 263.5,162.5 C 244.833,163.167 226.167,163.833 207.5,164.5C 206.833,164.833 206.167,165.167 205.5,165.5C 205.5,164.5 205.5,163.5 205.5,162.5C 224.833,162.5 244.167,162.5 263.5,162.5 Z"/></g>
<g><path style="opacity:1" fill="#91afc1" d="M 263.5,162.5 C 264.833,162.5 266.167,162.5 267.5,162.5C 267.082,163.222 266.416,163.722 265.5,164C 246.17,164.5 226.836,164.667 207.5,164.5C 226.167,163.833 244.833,163.167 263.5,162.5 Z"/></g>
<g><path style="opacity:1" fill="#b3ccd7" d="M 290.5,159.5 C 290.833,159.5 291.167,159.5 291.5,159.5C 289.833,163.167 287.167,165.833 283.5,167.5C 285.833,164.833 288.167,162.167 290.5,159.5 Z"/></g>
<g><path style="opacity:1" fill="#658ca5" d="M 287.5,143.5 C 287.665,146.518 287.498,149.518 287,152.5C 286.667,152.167 286.333,151.833 286,151.5C 284.214,154.08 282.714,156.747 281.5,159.5C 277.069,162.319 272.069,164.152 266.5,165C 246.836,165.5 227.169,165.667 207.5,165.5C 207.5,167.833 207.5,170.167 207.5,172.5C 212.813,173.098 218.146,173.431 223.5,173.5C 223.5,174.167 223.5,174.833 223.5,175.5C 218.167,175.5 212.833,175.5 207.5,175.5C 206.833,175.5 206.167,175.5 205.5,175.5C 205.5,172.167 205.5,168.833 205.5,165.5C 206.167,165.167 206.833,164.833 207.5,164.5C 226.836,164.667 246.17,164.5 265.5,164C 266.416,163.722 267.082,163.222 267.5,162.5C 268.833,161.5 270.167,160.5 271.5,159.5C 272.167,159.5 272.833,159.5 273.5,159.5C 276.198,159.155 278.198,157.822 279.5,155.5C 280.604,153.611 281.937,151.945 283.5,150.5C 284.906,150.027 285.573,149.027 285.5,147.5C 285.66,145.847 286.326,144.514 287.5,143.5 Z"/></g>
<g><path style="opacity:1" fill="#a7bbcb" d="M 283.5,167.5 C 282.713,169.104 281.38,169.771 279.5,169.5C 280.514,168.326 281.847,167.66 283.5,167.5 Z"/></g>
<g><path style="opacity:1" fill="#61a8ba" d="M 195.5,129.5 C 196.833,144.833 196.833,160.167 195.5,175.5C 194.833,175.5 194.167,175.5 193.5,175.5C 193.833,160.485 193.499,145.485 192.5,130.5C 191.614,131.325 191.281,132.325 191.5,133.5C 189.692,132.683 188.192,133.35 187,135.5C 186.333,148.833 186.333,162.167 187,175.5C 187.995,176.066 188.828,176.733 189.5,177.5C 187.549,177.773 186.049,177.107 185,175.5C 184.333,160.167 184.333,144.833 185,129.5C 188.499,128.203 191.999,128.203 195.5,129.5 Z"/></g>
<g><path style="opacity:1" fill="#4fabc4" d="M 193.5,175.5 C 191.518,161.873 190.851,147.873 191.5,133.5C 191.281,132.325 191.614,131.325 192.5,130.5C 193.499,145.485 193.833,160.485 193.5,175.5 Z"/></g>
<g><path style="opacity:1" fill="#5f8aaa" d="M 290.5,159.5 C 288.167,162.167 285.833,164.833 283.5,167.5C 281.847,167.66 280.514,168.326 279.5,169.5C 278.833,170.167 278.167,170.833 277.5,171.5C 275.102,171.259 273.102,171.926 271.5,173.5C 255.551,175.165 239.551,175.832 223.5,175.5C 223.5,174.833 223.5,174.167 223.5,173.5C 233.73,173.8 243.897,173.134 254,171.5C 256.557,171.555 259.057,171.888 261.5,172.5C 265.869,170.202 270.536,169.036 275.5,169C 278.729,165.317 282.396,162.317 286.5,160C 287.793,159.51 289.127,159.343 290.5,159.5 Z"/></g>
<g><path style="opacity:1" fill="#bbd2d9" d="M 277.5,171.5 C 277.5,171.833 277.5,172.167 277.5,172.5C 275.565,173.15 273.565,173.483 271.5,173.5C 273.102,171.926 275.102,171.259 277.5,171.5 Z"/></g>
<g><path style="opacity:1" fill="#6a8ea7" d="M 118.5,166.5 C 113.245,168.227 107.912,170.061 102.5,172C 97.5901,175.692 92.5901,179.192 87.5,182.5C 87.4677,180.381 88.4677,179.048 90.5,178.5C 91.9063,178.027 92.573,177.027 92.5,175.5C 94.0269,175.573 95.0269,174.906 95.5,173.5C 97.4044,173.262 98.7377,172.262 99.5,170.5C 101.153,170.34 102.486,169.674 103.5,168.5C 104.391,167.89 105.391,167.557 106.5,167.5C 107.167,167.5 107.833,167.5 108.5,167.5C 111.807,166.949 115.14,166.616 118.5,166.5 Z"/></g>
<g><path style="opacity:1" fill="#5888ad" d="M 118.5,166.5 C 119.833,166.5 121.167,166.5 122.5,166.5C 138.516,166.321 154.516,166.654 170.5,167.5C 170.5,170.167 170.5,172.833 170.5,175.5C 150.472,174.846 130.805,175.512 111.5,177.5C 111.5,177.833 111.5,178.167 111.5,178.5C 110.5,178.5 109.5,178.5 108.5,178.5C 105.784,178.678 103.117,179.178 100.5,180C 98.5327,182.436 96.866,184.936 95.5,187.5C 94.1779,187.33 93.0113,187.663 92,188.5C 90.1598,193.876 88.3264,199.209 86.5,204.5C 87.0709,210.211 87.9042,215.878 89,221.5C 90.5298,223.226 91.5298,225.226 92,227.5C 93.0113,228.337 94.1779,228.67 95.5,228.5C 95.2289,230.821 95.8955,232.821 97.5,234.5C 95.5235,235.188 93.5235,234.855 91.5,233.5C 89.5758,230.938 87.2425,228.938 84.5,227.5C 83.0169,223.703 81.3502,220.037 79.5,216.5C 79.5,210.833 79.5,205.167 79.5,199.5C 79.5,198.833 79.5,198.167 79.5,197.5C 81.256,195.751 82.5894,193.751 83.5,191.5C 85.1526,188.791 86.486,185.791 87.5,182.5C 92.5901,179.192 97.5901,175.692 102.5,172C 107.912,170.061 113.245,168.227 118.5,166.5 Z"/></g>
<g><path style="opacity:1" fill="#91abbe" d="M 271.5,173.5 C 267.736,174.832 263.736,175.665 259.5,176C 241.995,176.829 224.662,176.662 207.5,175.5C 212.833,175.5 218.167,175.5 223.5,175.5C 239.551,175.832 255.551,175.165 271.5,173.5 Z"/></g>
<g><path style="opacity:1" fill="#7291a7" d="M 122.5,166.5 C 138.325,165.504 154.325,165.17 170.5,165.5C 171.117,165.611 171.617,165.944 172,166.5C 172.498,169.482 172.665,172.482 172.5,175.5C 171.711,175.783 171.044,176.283 170.5,177C 150.836,177.5 131.169,177.667 111.5,177.5C 130.805,175.512 150.472,174.846 170.5,175.5C 170.5,172.833 170.5,170.167 170.5,167.5C 154.516,166.654 138.516,166.321 122.5,166.5 Z"/></g>
<g><path style="opacity:1" fill="#a4bfcf" d="M 91.5,175.5 C 91.8333,175.5 92.1667,175.5 92.5,175.5C 92.573,177.027 91.9063,178.027 90.5,178.5C 90.5569,177.391 90.8902,176.391 91.5,175.5 Z"/></g>
<g><path style="opacity:1" fill="#deebf1" d="M 277.5,172.5 C 276.402,173.397 276.402,174.23 277.5,175C 270.782,175.509 264.115,176.342 257.5,177.5C 240.833,177.5 224.167,177.5 207.5,177.5C 206.167,177.5 205.5,176.833 205.5,175.5C 206.167,175.5 206.833,175.5 207.5,175.5C 224.662,176.662 241.995,176.829 259.5,176C 263.736,175.665 267.736,174.832 271.5,173.5C 273.565,173.483 275.565,173.15 277.5,172.5 Z"/></g>
<g><path style="opacity:1" fill="#c6dce9" d="M 172.5,175.5 C 172.586,176.496 172.252,177.329 171.5,178C 151.503,178.5 131.503,178.667 111.5,178.5C 111.5,178.167 111.5,177.833 111.5,177.5C 131.169,177.667 150.836,177.5 170.5,177C 171.044,176.283 171.711,175.783 172.5,175.5 Z"/></g>
<g><path style="opacity:1" fill="#f5fefe" d="M 207.5,177.5 C 224.167,177.5 240.833,177.5 257.5,177.5C 251.735,179.147 245.735,180.147 239.5,180.5C 235.151,180.415 230.818,180.082 226.5,179.5C 222.536,180.067 218.87,180.734 215.5,181.5C 212.813,181.664 210.146,181.497 207.5,181C 208.167,180.667 208.833,180.333 209.5,180C 208.244,179.583 207.577,178.75 207.5,177.5 Z"/></g>
<g><path style="opacity:1" fill="#f1fcfd" d="M 97.5,189.5 C 99.1139,187.544 100.781,185.544 102.5,183.5C 102.833,182.5 103.5,181.833 104.5,181.5C 107.157,181.065 109.491,180.065 111.5,178.5C 131.503,178.667 151.503,178.5 171.5,178C 172.252,177.329 172.586,176.496 172.5,175.5C 173.16,174.036 173.493,172.369 173.5,170.5C 173.712,167.989 173.045,165.822 171.5,164C 153.167,163.333 134.833,163.333 116.5,164C 113.424,164.346 110.424,165.012 107.5,166C 106.944,166.383 106.611,166.883 106.5,167.5C 105.391,167.557 104.391,167.89 103.5,168.5C 101.62,168.229 100.287,168.896 99.5,170.5C 97.5956,170.738 96.2623,171.738 95.5,173.5C 95.0269,174.906 94.0269,175.573 92.5,175.5C 92.5,174.167 92.5,172.833 92.5,171.5C 93.5,171.5 94.5,171.5 95.5,171.5C 95.5,170.5 95.5,169.5 95.5,168.5C 98.7366,168.114 101.403,166.614 103.5,164C 109.156,163.002 114.823,162.168 120.5,161.5C 135.075,162.455 149.742,162.788 164.5,162.5C 168.786,159.322 172.286,159.989 175,164.5C 175.499,169.155 175.666,173.821 175.5,178.5C 164.995,179.818 154.495,181.151 144,182.5C 141.446,181.229 138.613,180.562 135.5,180.5C 128.479,180.911 121.479,180.911 114.5,180.5C 111.743,182.209 108.743,183.375 105.5,184C 103.041,186.103 100.374,187.936 97.5,189.5 Z"/></g>
<g><path style="opacity:1" fill="#a6c0d3" d="M 99.5,170.5 C 98.7377,172.262 97.4044,173.262 95.5,173.5C 96.2623,171.738 97.5956,170.738 99.5,170.5 Z"/></g>
<g><path style="opacity:1" fill="#b8cdd8" d="M 103.5,168.5 C 102.486,169.674 101.153,170.34 99.5,170.5C 100.287,168.896 101.62,168.229 103.5,168.5 Z"/></g>
<g><path style="opacity:1" fill="#cfe3ee" d="M 172.5,175.5 C 172.665,172.482 172.498,169.482 172,166.5C 171.617,165.944 171.117,165.611 170.5,165.5C 153.338,164.338 136.005,164.171 118.5,165C 114.867,165.149 111.534,165.982 108.5,167.5C 107.833,167.5 107.167,167.5 106.5,167.5C 106.611,166.883 106.944,166.383 107.5,166C 110.424,165.012 113.424,164.346 116.5,164C 134.833,163.333 153.167,163.333 171.5,164C 173.045,165.822 173.712,167.989 173.5,170.5C 173.493,172.369 173.16,174.036 172.5,175.5 Z"/></g>
<g><path style="opacity:1" fill="#97b3c7" d="M 170.5,165.5 C 154.325,165.17 138.325,165.504 122.5,166.5C 121.167,166.5 119.833,166.5 118.5,166.5C 115.14,166.616 111.807,166.949 108.5,167.5C 111.534,165.982 114.867,165.149 118.5,165C 136.005,164.171 153.338,164.338 170.5,165.5 Z"/></g>
<g><path style="opacity:1" fill="#e8f5f8" d="M 91.5,175.5 C 90.8902,176.391 90.5569,177.391 90.5,178.5C 88.4677,179.048 87.4677,180.381 87.5,182.5C 85.8102,182.856 84.8102,183.856 84.5,185.5C 83.1224,188.396 81.4557,191.063 79.5,193.5C 79.7181,188.916 80.7181,184.583 82.5,180.5C 83.7908,179.222 85.7908,178.555 88.5,178.5C 88.5,177.5 88.5,176.5 88.5,175.5C 89.5,175.5 90.5,175.5 91.5,175.5 Z"/></g>
<g><path style="opacity:1" fill="#9bb7ca" d="M 108.5,178.5 C 109.5,178.5 110.5,178.5 111.5,178.5C 109.491,180.065 107.157,181.065 104.5,181.5C 105.59,180.143 106.924,179.143 108.5,178.5 Z"/></g>
<g><path style="opacity:1" fill="#fcfdf8" d="M 239.5,180.5 C 244.833,180.5 250.167,180.5 255.5,180.5C 255.5,181.833 255.5,183.167 255.5,184.5C 253.857,184.52 252.524,183.853 251.5,182.5C 247.571,183.433 243.571,183.766 239.5,183.5C 239.378,187.838 239.045,188.172 238.5,184.5C 236.723,184.214 235.056,183.547 233.5,182.5C 231.726,182.887 230.059,183.553 228.5,184.5C 227.304,184.154 227.304,183.654 228.5,183C 224.238,182.752 220.071,183.252 216,184.5C 215.517,183.552 215.351,182.552 215.5,181.5C 218.87,180.734 222.536,180.067 226.5,179.5C 230.818,180.082 235.151,180.415 239.5,180.5 Z"/></g>
<g><path style="opacity:1" fill="#bfd6e4" d="M 102.5,183.5 C 100.781,185.544 99.1139,187.544 97.5,189.5C 96.8333,189.5 96.1667,189.5 95.5,189.5C 97.2135,186.787 99.5468,184.787 102.5,183.5 Z"/></g>
<g><path style="opacity:1" fill="#bae1e4" d="M 191.5,185.5 C 188.812,185.166 186.479,185.832 184.5,187.5C 184.414,186.504 184.748,185.671 185.5,185C 187.712,184.211 189.712,184.378 191.5,185.5 Z"/></g>
<g><path style="opacity:1" fill="#6f91a9" d="M 87.5,182.5 C 86.486,185.791 85.1526,188.791 83.5,191.5C 83.5172,189.435 83.8505,187.435 84.5,185.5C 84.8102,183.856 85.8102,182.856 87.5,182.5 Z"/></g>
<g><path style="opacity:1" fill="#6eadb6" d="M 191.5,185.5 C 192.167,185.5 192.833,185.5 193.5,185.5C 193.833,186.167 194.167,186.833 194.5,187.5C 196.28,188.99 196.946,190.99 196.5,193.5C 194.585,196.961 191.585,198.628 187.5,198.5C 183.518,195.643 182.518,191.976 184.5,187.5C 186.479,185.832 188.812,185.166 191.5,185.5 Z"/></g>
<g><path style="opacity:1" fill="#99b5c5" d="M 84.5,185.5 C 83.8505,187.435 83.5172,189.435 83.5,191.5C 82.5894,193.751 81.256,195.751 79.5,197.5C 79.5,196.167 79.5,194.833 79.5,193.5C 81.4557,191.063 83.1224,188.396 84.5,185.5 Z"/></g>
<g><path style="opacity:1" fill="#5488b0" d="M 159.5,189.5 C 159.5,190.167 159.5,190.833 159.5,191.5C 157.554,196.396 156.887,201.729 157.5,207.5C 156.167,207.5 154.833,207.5 153.5,207.5C 153.172,202.125 153.505,196.792 154.5,191.5C 155.842,189.995 157.508,189.328 159.5,189.5 Z"/></g>
<g><path style="opacity:1" fill="#5a87a9" d="M 159.5,188.5 C 159.5,188.833 159.5,189.167 159.5,189.5C 157.508,189.328 155.842,189.995 154.5,191.5C 153.505,196.792 153.172,202.125 153.5,207.5C 154.833,207.5 156.167,207.5 157.5,207.5C 156.887,201.729 157.554,196.396 159.5,191.5C 159.975,202.356 159.308,213.023 157.5,223.5C 155.188,225.146 153.188,227.146 151.5,229.5C 153.222,226.219 154.222,222.719 154.5,219C 154.167,217.5 153.833,216 153.5,214.5C 151.918,216.015 150.584,217.681 149.5,219.5C 151.993,209.712 153.16,199.712 153,189.5C 155.041,188.577 157.208,188.244 159.5,188.5 Z"/></g>
<g><path style="opacity:1" fill="#deecf4" d="M 159.5,187.5 C 156.615,187.194 153.948,187.527 151.5,188.5C 149.537,195.424 148.87,202.757 149.5,210.5C 149.309,213.983 148.643,217.316 147.5,220.5C 146.833,220.833 146.167,221.167 145.5,221.5C 146.762,216.848 146.762,212.181 145.5,207.5C 146.5,207.5 147.5,207.5 148.5,207.5C 148.17,200.8 148.503,194.134 149.5,187.5C 152.967,186.212 156.3,186.212 159.5,187.5 Z"/></g>
<g><path style="opacity:1" fill="#4eabc0" d="M 194.5,187.5 C 195.5,193.833 192.833,196.5 186.5,195.5C 185.175,188.83 187.842,186.164 194.5,187.5 Z"/></g>
<g><path style="opacity:1" fill="#c3dfe9" d="M 193.5,185.5 C 194.167,185.5 194.833,185.5 195.5,185.5C 197.226,187.82 197.893,190.487 197.5,193.5C 197.167,193.5 196.833,193.5 196.5,193.5C 196.946,190.99 196.28,188.99 194.5,187.5C 194.167,186.833 193.833,186.167 193.5,185.5 Z"/></g>
<g><path style="opacity:1" fill="#cfe3ed" d="M 95.5,189.5 C 95.1664,193.096 93.9998,196.429 92,199.5C 91.5012,203.486 91.3345,207.486 91.5,211.5C 90.5206,208.375 90.1872,205.042 90.5,201.5C 91.1052,196.968 92.7719,192.968 95.5,189.5 Z"/></g>
<g><path style="opacity:1" fill="#9dc8cb" d="M 211.5,193.5 C 213.294,195.428 214.294,197.762 214.5,200.5C 213.1,199.9 212.1,198.9 211.5,197.5C 211.5,196.167 211.5,194.833 211.5,193.5 Z"/></g>
<g><path style="opacity:1" fill="#e7f9fa" d="M 271.5,200.5 C 271.5,201.833 270.833,202.5 269.5,202.5C 269.144,201.13 268.31,200.13 267,199.5C 264.23,198.652 261.397,198.319 258.5,198.5C 258.414,197.504 258.748,196.671 259.5,196C 261.833,195.333 264.167,195.333 266.5,196C 267.78,197.966 269.447,199.466 271.5,200.5 Z"/></g>
<g><path style="opacity:1" fill="#5aacc1" d="M 205.5,192.5 C 207.621,192.325 209.621,192.659 211.5,193.5C 211.5,194.833 211.5,196.167 211.5,197.5C 211.784,199.415 211.451,201.081 210.5,202.5C 208.632,201.326 207.632,201.993 207.5,204.5C 207.813,208.042 207.479,211.375 206.5,214.5C 204.476,207.238 204.143,199.905 205.5,192.5 Z"/></g>
<g><path style="opacity:1" fill="#ceeff2" d="M 300.5,214.5 C 300.167,214.5 299.833,214.5 299.5,214.5C 299.666,209.821 299.499,205.155 299,200.5C 298.617,199.944 298.117,199.611 297.5,199.5C 293.218,198.68 288.885,198.68 284.5,199.5C 281.077,198.922 277.743,198.922 274.5,199.5C 273.513,204.305 273.179,209.305 273.5,214.5C 272.25,214.423 271.417,213.756 271,212.5C 270.292,213.381 269.458,214.047 268.5,214.5C 268.737,213.209 268.404,212.209 267.5,211.5C 267.782,210.222 268.449,209.222 269.5,208.5C 269.5,206.5 269.5,204.5 269.5,202.5C 270.833,202.5 271.5,201.833 271.5,200.5C 271.953,199.542 272.619,198.708 273.5,198C 281.833,197.333 290.167,197.333 298.5,198C 300.42,203.197 301.087,208.697 300.5,214.5 Z"/></g>
<g><path style="opacity:1" fill="#d1e2ee" d="M 159.5,188.5 C 159.5,188.167 159.5,187.833 159.5,187.5C 160.496,187.414 161.329,187.748 162,188.5C 162.822,196.012 162.655,203.345 161.5,210.5C 161.666,203.492 161.5,196.492 161,189.5C 160.617,188.944 160.117,188.611 159.5,188.5 Z"/></g>
<g><path style="opacity:1" fill="#f2fbfa" d="M 247.5,198.5 C 244.615,198.194 241.948,198.527 239.5,199.5C 239.167,199.5 238.833,199.5 238.5,199.5C 236.938,199.733 235.605,200.4 234.5,201.5C 233.542,201.953 232.708,202.619 232,203.5C 231.824,199.312 231.324,195.312 230.5,191.5C 230.167,191.5 229.833,191.5 229.5,191.5C 226.5,191.5 223.5,191.5 220.5,191.5C 221.514,190.235 223.014,189.569 225,189.5C 229.993,190.152 234.826,190.152 239.5,189.5C 238.665,194.992 240.332,196.326 244.5,193.5C 245.32,195.319 246.32,196.986 247.5,198.5 Z"/></g>
<g><path style="opacity:1" fill="#9ecbd4" d="M 239.5,199.5 C 241.948,198.527 244.615,198.194 247.5,198.5C 248.6,199.605 249.267,200.938 249.5,202.5C 246.671,200.022 243.338,199.022 239.5,199.5 Z"/></g>
<g><path style="opacity:1" fill="#688aa3" d="M 159.5,187.5 C 159.5,187.833 159.5,188.167 159.5,188.5C 157.208,188.244 155.041,188.577 153,189.5C 153.16,199.712 151.993,209.712 149.5,219.5C 148.68,221.812 147.847,224.146 147,226.5C 144.821,227.84 144.321,227.507 145.5,225.5C 145.5,224.833 145.5,224.167 145.5,223.5C 146.906,223.027 147.573,222.027 147.5,220.5C 148.643,217.316 149.309,213.983 149.5,210.5C 150.198,203.266 150.864,195.933 151.5,188.5C 153.948,187.527 156.615,187.194 159.5,187.5 Z"/></g>
<g><path style="opacity:1" fill="#8099ae" d="M 159.5,188.5 C 160.117,188.611 160.617,188.944 161,189.5C 161.5,196.492 161.666,203.492 161.5,210.5C 160.588,215.397 159.588,220.397 158.5,225.5C 157.833,225.833 157.167,226.167 156.5,226.5C 156.557,225.391 156.89,224.391 157.5,223.5C 159.308,213.023 159.975,202.356 159.5,191.5C 159.5,190.833 159.5,190.167 159.5,189.5C 159.5,189.167 159.5,188.833 159.5,188.5 Z"/></g>
<g><path style="opacity:1" fill="#90c4cb" d="M 274.5,199.5 C 277.743,198.922 281.077,198.922 284.5,199.5C 281.128,200.519 277.794,200.519 274.5,199.5 Z"/></g>
<g><path style="opacity:1" fill="#c1eff8" d="M 218.5,199.5 C 217.85,201.435 217.517,203.435 217.5,205.5C 214.916,204.952 213.916,203.285 214.5,200.5C 215.959,200.567 217.292,200.234 218.5,199.5 Z"/></g>
<g><path style="opacity:1" fill="#dff5f8" d="M 184.5,179.5 C 184.5,179.167 184.5,178.833 184.5,178.5C 187.833,178.5 191.167,178.5 194.5,178.5C 194.833,178.5 195.167,178.5 195.5,178.5C 192.967,180.914 192.967,183.247 195.5,185.5C 194.833,185.5 194.167,185.5 193.5,185.5C 192.833,185.5 192.167,185.5 191.5,185.5C 189.712,184.378 187.712,184.211 185.5,185C 184.748,185.671 184.414,186.504 184.5,187.5C 182.518,191.976 183.518,195.643 187.5,198.5C 192.569,200.788 195.569,199.122 196.5,193.5C 196.833,193.5 197.167,193.5 197.5,193.5C 197.657,194.873 197.49,196.207 197,197.5C 193.879,199.674 193.712,202.007 196.5,204.5C 195.833,204.5 195.167,204.5 194.5,204.5C 192.034,203.366 189.367,203.199 186.5,204C 185.944,204.383 185.611,204.883 185.5,205.5C 183.631,207.635 182.964,210.302 183.5,213.5C 182.833,213.167 182.167,212.833 181.5,212.5C 181.5,209.833 181.5,207.167 181.5,204.5C 184.694,203.292 188.027,202.292 191.5,201.5C 181.463,199.151 178.796,193.318 183.5,184C 186.146,183.503 188.813,183.336 191.5,183.5C 191.5,182.167 191.5,180.833 191.5,179.5C 189.167,179.5 186.833,179.5 184.5,179.5 Z"/></g>
<g><path style="opacity:1" fill="#afd6db" d="M 196.5,193.5 C 195.569,199.122 192.569,200.788 187.5,198.5C 191.585,198.628 194.585,196.961 196.5,193.5 Z"/></g>
<g><path style="opacity:1" fill="#d9f1f6" d="M 202.5,191.5 C 202.5,199.5 202.5,207.5 202.5,215.5C 204.167,215.5 205.833,215.5 207.5,215.5C 207.209,216.649 206.376,217.316 205,217.5C 203.301,217.613 202.134,216.947 201.5,215.5C 201.5,207.833 201.5,200.167 201.5,192.5C 201.5,191.833 201.833,191.5 202.5,191.5 Z"/></g>
<g><path style="opacity:1" fill="#7bafbd" d="M 220.5,195.5 C 220.264,198.609 220.597,201.609 221.5,204.5C 221.598,206.553 220.931,208.22 219.5,209.5C 219.119,208.069 218.119,207.236 216.5,207C 217.056,206.617 217.389,206.117 217.5,205.5C 217.517,203.435 217.85,201.435 218.5,199.5C 218.66,197.847 219.326,196.514 220.5,195.5 Z"/></g>
<g><path style="opacity:1" fill="#72aeb8" d="M 258.5,198.5 C 261.397,198.319 264.23,198.652 267,199.5C 268.31,200.13 269.144,201.13 269.5,202.5C 269.5,204.5 269.5,206.5 269.5,208.5C 266.5,208.5 263.5,208.5 260.5,208.5C 258.946,207.105 259.279,206.439 261.5,206.5C 263.453,207.156 265.453,207.489 267.5,207.5C 267.759,205.011 266.759,203.344 264.5,202.5C 262.5,202.5 260.5,202.5 258.5,202.5C 257.662,202.158 257.328,201.492 257.5,200.5C 257.833,199.833 258.167,199.167 258.5,198.5 Z"/></g>
<g><path style="opacity:1" fill="#94c4c7" d="M 238.5,199.5 C 238.167,200.167 237.833,200.833 237.5,201.5C 235.132,203.956 234.132,206.956 234.5,210.5C 233.319,207.638 233.319,204.638 234.5,201.5C 235.605,200.4 236.938,199.733 238.5,199.5 Z"/></g>
<g><path style="opacity:1" fill="#9eb2c1" d="M 151.5,188.5 C 150.864,195.933 150.198,203.266 149.5,210.5C 148.87,202.757 149.537,195.424 151.5,188.5 Z"/></g>
<g><path style="opacity:1" fill="#8fbec8" d="M 194.5,204.5 C 191.43,204.368 188.43,204.701 185.5,205.5C 185.611,204.883 185.944,204.383 186.5,204C 189.367,203.199 192.034,203.366 194.5,204.5 Z"/></g>
<g><path style="opacity:1" fill="#5babb6" d="M 220.5,191.5 C 223.5,191.5 226.5,191.5 229.5,191.5C 229.5,198.833 229.5,206.167 229.5,213.5C 228.167,213.5 226.833,213.5 225.5,213.5C 225.817,209.298 225.483,205.298 224.5,201.5C 224.631,200.761 224.464,200.094 224,199.5C 223.209,200.745 222.709,202.078 222.5,203.5C 222.5,204.167 222.167,204.5 221.5,204.5C 220.597,201.609 220.264,198.609 220.5,195.5C 220.5,194.167 220.5,192.833 220.5,191.5 Z"/></g>
<g><path style="opacity:1" fill="#acedf5" d="M 239.5,202.5 C 242.285,201.916 243.952,202.916 244.5,205.5C 242.833,205.5 241.167,205.5 239.5,205.5C 239.5,204.5 239.5,203.5 239.5,202.5 Z"/></g>
<g><path style="opacity:1" fill="#66abb7" d="M 297.5,199.5 C 298.392,204.438 298.726,209.438 298.5,214.5C 297.167,214.5 295.833,214.5 294.5,214.5C 294.5,210.833 294.5,207.167 294.5,203.5C 292.533,203.261 290.699,203.594 289,204.5C 288.502,207.817 288.335,211.15 288.5,214.5C 287.791,215.404 286.791,215.737 285.5,215.5C 284.897,211.727 284.23,208.061 283.5,204.5C 281.833,203.167 280.167,203.167 278.5,204.5C 277.521,207.625 277.187,210.958 277.5,214.5C 276.5,214.5 275.5,214.5 274.5,214.5C 274.5,209.5 274.5,204.5 274.5,199.5C 277.794,200.519 281.128,200.519 284.5,199.5C 288.885,198.68 293.218,198.68 297.5,199.5 Z"/></g>
<g><path style="opacity:1" fill="#8eacbf" d="M 90.5,201.5 C 90.1872,205.042 90.5206,208.375 91.5,211.5C 91.5,212.833 91.5,214.167 91.5,215.5C 90.027,212.983 89.3603,210.15 89.5,207C 89.5056,204.967 89.8389,203.134 90.5,201.5 Z"/></g>
<g><path style="opacity:1" fill="#c0edf0" d="M 210.5,202.5 C 210.5,204.167 210.5,205.833 210.5,207.5C 210.167,207.5 209.833,207.5 209.5,207.5C 209.167,207.5 208.833,207.5 208.5,207.5C 208.737,206.209 208.404,205.209 207.5,204.5C 207.632,201.993 208.632,201.326 210.5,202.5 Z"/></g>
<g><path style="opacity:1" fill="#b6e4fb" d="M 224.5,201.5 C 224.5,205.833 224.5,210.167 224.5,214.5C 224.167,214.5 223.833,214.5 223.5,214.5C 223.5,213.833 223.5,213.167 223.5,212.5C 223.81,209.287 223.477,206.287 222.5,203.5C 222.709,202.078 223.209,200.745 224,199.5C 224.464,200.094 224.631,200.761 224.5,201.5 Z"/></g>
<g><path style="opacity:1" fill="#60a8b6" d="M 237.5,201.5 C 237.185,204.211 237.852,206.544 239.5,208.5C 239.5,209.5 239.5,210.5 239.5,211.5C 239.715,213.179 239.048,214.179 237.5,214.5C 236.5,213.167 235.5,211.833 234.5,210.5C 234.132,206.956 235.132,203.956 237.5,201.5 Z"/></g>
<g><path style="opacity:1" fill="#f4fcfc" d="M 195.5,185.5 C 196.873,185.343 198.207,185.51 199.5,186C 199.434,188.109 199.101,190.275 198.5,192.5C 199.233,193.087 200.233,193.087 201.5,192.5C 201.5,200.167 201.5,207.833 201.5,215.5C 200.022,215.238 198.689,215.571 197.5,216.5C 196.737,217.719 195.737,218.719 194.5,219.5C 195.025,220.192 195.692,220.692 196.5,221C 192.445,221.156 188.445,220.656 184.5,219.5C 183.957,216.962 182.957,214.628 181.5,212.5C 182.167,212.833 182.833,213.167 183.5,213.5C 183.833,214.5 184.5,215.167 185.5,215.5C 188.337,217.402 191.671,218.069 195.5,217.5C 195.433,216.041 195.766,214.708 196.5,213.5C 197.775,210.604 197.775,207.604 196.5,204.5C 193.712,202.007 193.879,199.674 197,197.5C 197.49,196.207 197.657,194.873 197.5,193.5C 197.893,190.487 197.226,187.82 195.5,185.5 Z"/></g>
<g><path style="opacity:1" fill="#74a9bc" d="M 238.5,199.5 C 238.833,199.5 239.167,199.5 239.5,199.5C 239.5,200.5 239.5,201.5 239.5,202.5C 239.5,203.5 239.5,204.5 239.5,205.5C 241.167,205.5 242.833,205.5 244.5,205.5C 245.552,207.256 247.219,207.923 249.5,207.5C 249.5,206.167 249.5,204.833 249.5,203.5C 250.451,204.919 250.784,206.585 250.5,208.5C 246.833,208.5 243.167,208.5 239.5,208.5C 237.852,206.544 237.185,204.211 237.5,201.5C 237.833,200.833 238.167,200.167 238.5,199.5 Z"/></g>
<g><path style="opacity:1" fill="#62adba" d="M 239.5,199.5 C 243.338,199.022 246.671,200.022 249.5,202.5C 249.5,202.833 249.5,203.167 249.5,203.5C 249.5,204.833 249.5,206.167 249.5,207.5C 247.219,207.923 245.552,207.256 244.5,205.5C 243.952,202.916 242.285,201.916 239.5,202.5C 239.5,201.5 239.5,200.5 239.5,199.5 Z"/></g>
<g><path style="opacity:1" fill="#a9d5de" d="M 294.5,214.5 C 293.521,211.375 293.187,208.042 293.5,204.5C 292.178,204.33 291.011,204.663 290,205.5C 289.819,208.695 289.319,211.695 288.5,214.5C 288.335,211.15 288.502,207.817 289,204.5C 290.699,203.594 292.533,203.261 294.5,203.5C 294.5,207.167 294.5,210.833 294.5,214.5 Z"/></g>
<g><path style="opacity:1" fill="#608aa7" d="M 108.5,178.5 C 106.924,179.143 105.59,180.143 104.5,181.5C 103.5,181.833 102.833,182.5 102.5,183.5C 99.5468,184.787 97.2135,186.787 95.5,189.5C 92.7719,192.968 91.1052,196.968 90.5,201.5C 89.8389,203.134 89.5056,204.967 89.5,207C 89.3603,210.15 90.027,212.983 91.5,215.5C 91.366,217.292 91.6993,218.958 92.5,220.5C 93.6359,225.641 96.6359,229.308 101.5,231.5C 103.181,233.008 105.181,234.008 107.5,234.5C 108.287,236.104 109.62,236.771 111.5,236.5C 111.5,236.833 111.5,237.167 111.5,237.5C 106.087,237.084 100.754,237.084 95.5,237.5C 95.5,238.5 95.5,239.5 95.5,240.5C 93.2459,239.585 91.2459,238.252 89.5,236.5C 88.9202,234.251 87.5869,232.585 85.5,231.5C 84.6618,231.158 84.3284,230.492 84.5,229.5C 84.5,228.833 84.5,228.167 84.5,227.5C 87.2425,228.938 89.5758,230.938 91.5,233.5C 93.5235,234.855 95.5235,235.188 97.5,234.5C 95.8955,232.821 95.2289,230.821 95.5,228.5C 94.1779,228.67 93.0113,228.337 92,227.5C 91.5298,225.226 90.5298,223.226 89,221.5C 87.9042,215.878 87.0709,210.211 86.5,204.5C 88.3264,199.209 90.1598,193.876 92,188.5C 93.0113,187.663 94.1779,187.33 95.5,187.5C 96.866,184.936 98.5327,182.436 100.5,180C 103.117,179.178 105.784,178.678 108.5,178.5 Z"/></g>
<g><path style="opacity:1" fill="#79adaf" d="M 255.5,202.5 C 255.5,205.5 255.5,208.5 255.5,211.5C 253.974,210.508 253.307,209.008 253.5,207C 253.307,204.992 253.974,203.492 255.5,202.5 Z"/></g>
<g><path style="opacity:1" fill="#81b8c2" d="M 274.5,199.5 C 274.5,204.5 274.5,209.5 274.5,214.5C 275.5,214.5 276.5,214.5 277.5,214.5C 277.187,210.958 277.521,207.625 278.5,204.5C 278.5,207.833 278.5,211.167 278.5,214.5C 276.833,215.833 275.167,215.833 273.5,214.5C 273.179,209.305 273.513,204.305 274.5,199.5 Z"/></g>
<g><path style="opacity:1" fill="#c1dee5" d="M 194.5,204.5 C 195.167,204.5 195.833,204.5 196.5,204.5C 197.775,207.604 197.775,210.604 196.5,213.5C 196.802,210.941 196.468,208.607 195.5,206.5C 195.167,205.833 194.833,205.167 194.5,204.5 Z"/></g>
<g><path style="opacity:1" fill="#66a5b2" d="M 205.5,192.5 C 204.143,199.905 204.476,207.238 206.5,214.5C 205.5,214.5 204.5,214.5 203.5,214.5C 202.87,206.757 203.537,199.424 205.5,192.5 Z"/></g>
<g><path style="opacity:1" fill="#b1dee8" d="M 239.5,208.5 C 243.167,208.5 246.833,208.5 250.5,208.5C 249.737,209.268 248.737,209.768 247.5,210C 249.107,211.049 249.773,212.549 249.5,214.5C 249.167,214.5 248.833,214.5 248.5,214.5C 248.5,213.5 248.5,212.5 248.5,211.5C 245.5,211.5 242.5,211.5 239.5,211.5C 239.5,210.5 239.5,209.5 239.5,208.5 Z"/></g>
<g><path style="opacity:1" fill="#61acba" d="M 257.5,200.5 C 257.328,201.492 257.662,202.158 258.5,202.5C 258.5,203.5 258.5,204.5 258.5,205.5C 260.5,205.5 262.5,205.5 264.5,205.5C 264.5,204.5 264.5,203.5 264.5,202.5C 266.759,203.344 267.759,205.011 267.5,207.5C 265.453,207.489 263.453,207.156 261.5,206.5C 259.279,206.439 258.946,207.105 260.5,208.5C 259.566,209.568 259.232,210.901 259.5,212.5C 260.833,212.5 262.167,212.5 263.5,212.5C 263.38,213.586 262.713,214.253 261.5,214.5C 259.547,213.844 257.547,213.511 255.5,213.5C 255.5,212.833 255.5,212.167 255.5,211.5C 255.5,208.5 255.5,205.5 255.5,202.5C 255.5,201.167 256.167,200.5 257.5,200.5 Z"/></g>
<g><path style="opacity:1" fill="#a1dfea" d="M 258.5,202.5 C 260.5,202.5 262.5,202.5 264.5,202.5C 264.5,203.5 264.5,204.5 264.5,205.5C 262.5,205.5 260.5,205.5 258.5,205.5C 258.5,204.5 258.5,203.5 258.5,202.5 Z"/></g>
<g><path style="opacity:1" fill="#d5f2f5" d="M 247.5,198.5 C 249.017,198.511 250.184,199.177 251,200.5C 253.382,199.446 255.882,198.779 258.5,198.5C 258.167,199.167 257.833,199.833 257.5,200.5C 256.167,200.5 255.5,201.167 255.5,202.5C 253.974,203.492 253.307,204.992 253.5,207C 253.307,209.008 253.974,210.508 255.5,211.5C 255.5,212.167 255.5,212.833 255.5,213.5C 254.18,212.058 252.514,211.392 250.5,211.5C 250.737,212.791 250.404,213.791 249.5,214.5C 249.773,212.549 249.107,211.049 247.5,210C 248.737,209.768 249.737,209.268 250.5,208.5C 250.784,206.585 250.451,204.919 249.5,203.5C 249.5,203.167 249.5,202.833 249.5,202.5C 249.267,200.938 248.6,199.605 247.5,198.5 Z"/></g>
<g><path style="opacity:1" fill="#9ec2c9" d="M 202.5,191.5 C 206.012,190.945 209.012,191.612 211.5,193.5C 209.621,192.659 207.621,192.325 205.5,192.5C 203.537,199.424 202.87,206.757 203.5,214.5C 204.5,214.5 205.5,214.5 206.5,214.5C 207.479,211.375 207.813,208.042 207.5,204.5C 208.404,205.209 208.737,206.209 208.5,207.5C 208.806,210.385 208.473,213.052 207.5,215.5C 205.833,215.5 204.167,215.5 202.5,215.5C 202.5,207.5 202.5,199.5 202.5,191.5 Z"/></g>
<g><path style="opacity:1" fill="#bbe7f1" d="M 283.5,204.5 C 283.5,205.5 283.5,206.5 283.5,207.5C 282.596,206.791 282.263,205.791 282.5,204.5C 281.5,204.5 280.5,204.5 279.5,204.5C 279.5,207.833 279.5,211.167 279.5,214.5C 279.167,214.5 278.833,214.5 278.5,214.5C 278.5,211.167 278.5,207.833 278.5,204.5C 280.167,203.167 281.833,203.167 283.5,204.5 Z"/></g>
<g><path style="opacity:1" fill="#69adb8" d="M 211.5,197.5 C 212.1,198.9 213.1,199.9 214.5,200.5C 213.916,203.285 214.916,204.952 217.5,205.5C 217.389,206.117 217.056,206.617 216.5,207C 218.119,207.236 219.119,208.069 219.5,209.5C 218.85,211.435 218.517,213.435 218.5,215.5C 217.127,215.657 215.793,215.49 214.5,215C 213.092,212.481 211.758,209.981 210.5,207.5C 210.5,205.833 210.5,204.167 210.5,202.5C 211.451,201.081 211.784,199.415 211.5,197.5 Z"/></g>
<g><path style="opacity:1" fill="#96d1db" d="M 260.5,208.5 C 263.5,208.5 266.5,208.5 269.5,208.5C 268.449,209.222 267.782,210.222 267.5,211.5C 266.5,211.5 265.5,211.5 264.5,211.5C 264.5,212.167 264.167,212.5 263.5,212.5C 262.167,212.5 260.833,212.5 259.5,212.5C 259.232,210.901 259.566,209.568 260.5,208.5 Z"/></g>
<g><path style="opacity:1" fill="#b5f5fd" d="M 264.5,211.5 C 263.022,211.762 261.689,211.429 260.5,210.5C 261.167,210.167 261.833,209.833 262.5,209.5C 263.713,209.747 264.38,210.414 264.5,211.5 Z"/></g>
<g><path style="opacity:1" fill="#59aab6" d="M 194.5,204.5 C 194.833,205.167 195.167,205.833 195.5,206.5C 195.5,207.167 195.167,207.5 194.5,207.5C 192.5,207.5 190.5,207.5 188.5,207.5C 188.579,208.93 188.246,210.264 187.5,211.5C 188.949,212.172 190.282,212.839 191.5,213.5C 189.44,214.811 187.274,214.811 185,213.5C 184.278,210.739 184.445,208.073 185.5,205.5C 188.43,204.701 191.43,204.368 194.5,204.5 Z"/></g>
<g><path style="opacity:1" fill="#e9f9fa" d="M 230.5,191.5 C 231.324,195.312 231.824,199.312 232,203.5C 232.708,202.619 233.542,201.953 234.5,201.5C 233.319,204.638 233.319,207.638 234.5,210.5C 235.5,211.833 236.5,213.167 237.5,214.5C 241.065,215.787 244.732,215.787 248.5,214.5C 248.833,214.5 249.167,214.5 249.5,214.5C 250.404,213.791 250.737,212.791 250.5,211.5C 252.514,211.392 254.18,212.058 255.5,213.5C 259.581,215.739 263.915,216.073 268.5,214.5C 269.458,214.047 270.292,213.381 271,212.5C 271.417,213.756 272.25,214.423 273.5,214.5C 275.167,215.833 276.833,215.833 278.5,214.5C 278.833,214.5 279.167,214.5 279.5,214.5C 279.586,215.496 279.252,216.329 278.5,217C 275.623,217.725 272.957,217.225 270.5,215.5C 266.949,219.537 262.615,220.537 257.5,218.5C 256.328,218.919 255.328,219.585 254.5,220.5C 253.056,218.973 252.222,217.306 252,215.5C 250.248,216.958 248.415,218.291 246.5,219.5C 241.901,218.304 237.401,216.97 233,215.5C 230.46,216.207 229.293,217.873 229.5,220.5C 226.184,219.851 224.184,217.851 223.5,214.5C 223.833,214.5 224.167,214.5 224.5,214.5C 226.265,215.461 228.265,215.795 230.5,215.5C 230.5,207.5 230.5,199.5 230.5,191.5 Z"/></g>
<g><path style="opacity:1" fill="#a0c2cb" d="M 283.5,204.5 C 284.23,208.061 284.897,211.727 285.5,215.5C 285.167,215.5 284.833,215.5 284.5,215.5C 283.833,215.5 283.5,215.167 283.5,214.5C 283.5,212.167 283.5,209.833 283.5,207.5C 283.5,206.5 283.5,205.5 283.5,204.5 Z"/></g>
<g><path style="opacity:1" fill="#75b0bb" d="M 185.5,205.5 C 184.445,208.073 184.278,210.739 185,213.5C 187.274,214.811 189.44,214.811 191.5,213.5C 193.913,212.32 194.913,210.32 194.5,207.5C 195.167,207.5 195.5,207.167 195.5,206.5C 196.468,208.607 196.802,210.941 196.5,213.5C 195.078,213.75 194.078,214.583 193.5,216C 190.779,216.602 188.113,216.435 185.5,215.5C 184.5,215.167 183.833,214.5 183.5,213.5C 182.964,210.302 183.631,207.635 185.5,205.5 Z"/></g>
<g><path style="opacity:1" fill="#4fabc2" d="M 194.5,207.5 C 194.913,210.32 193.913,212.32 191.5,213.5C 190.282,212.839 188.949,212.172 187.5,211.5C 188.246,210.264 188.579,208.93 188.5,207.5C 190.5,207.5 192.5,207.5 194.5,207.5 Z"/></g>
<g><path style="opacity:1" fill="#6fafb0" d="M 239.5,211.5 C 242.5,211.5 245.5,211.5 248.5,211.5C 248.5,212.5 248.5,213.5 248.5,214.5C 244.732,215.787 241.065,215.787 237.5,214.5C 239.048,214.179 239.715,213.179 239.5,211.5 Z"/></g>
<g><path style="opacity:1" fill="#81b1b6" d="M 264.5,211.5 C 265.5,211.5 266.5,211.5 267.5,211.5C 268.404,212.209 268.737,213.209 268.5,214.5C 263.915,216.073 259.581,215.739 255.5,213.5C 257.547,213.511 259.547,213.844 261.5,214.5C 262.713,214.253 263.38,213.586 263.5,212.5C 264.167,212.5 264.5,212.167 264.5,211.5 Z"/></g>
<g><path style="opacity:1" fill="#ebf7f8" d="M 283.5,207.5 C 283.5,209.833 283.5,212.167 283.5,214.5C 282.167,214.5 280.833,214.5 279.5,214.5C 279.5,211.167 279.5,207.833 279.5,204.5C 280.5,204.5 281.5,204.5 282.5,204.5C 282.263,205.791 282.596,206.791 283.5,207.5 Z"/></g>
<g><path style="opacity:1" fill="#8dbec7" d="M 229.5,191.5 C 229.833,191.5 230.167,191.5 230.5,191.5C 230.5,199.5 230.5,207.5 230.5,215.5C 228.265,215.795 226.265,215.461 224.5,214.5C 224.5,210.167 224.5,205.833 224.5,201.5C 225.483,205.298 225.817,209.298 225.5,213.5C 226.833,213.5 228.167,213.5 229.5,213.5C 229.5,206.167 229.5,198.833 229.5,191.5 Z"/></g>
<g><path style="opacity:1" fill="#e2f7fa" d="M 294.5,214.5 C 296.167,215.833 297.833,215.833 299.5,214.5C 299.833,214.5 300.167,214.5 300.5,214.5C 300.586,215.496 300.252,216.329 299.5,217C 296.696,217.46 294.029,216.96 291.5,215.5C 289.547,216.024 287.88,217.024 286.5,218.5C 285.081,217.995 284.415,216.995 284.5,215.5C 284.833,215.5 285.167,215.5 285.5,215.5C 286.791,215.737 287.791,215.404 288.5,214.5C 289.319,211.695 289.819,208.695 290,205.5C 291.011,204.663 292.178,204.33 293.5,204.5C 293.187,208.042 293.521,211.375 294.5,214.5 Z"/></g>
<g><path style="opacity:1" fill="#94c5cf" d="M 297.5,199.5 C 298.117,199.611 298.617,199.944 299,200.5C 299.499,205.155 299.666,209.821 299.5,214.5C 297.833,215.833 296.167,215.833 294.5,214.5C 295.833,214.5 297.167,214.5 298.5,214.5C 298.726,209.438 298.392,204.438 297.5,199.5 Z"/></g>
<g><path style="opacity:1" fill="#d1eef0" d="M 196.5,213.5 C 195.766,214.708 195.433,216.041 195.5,217.5C 191.671,218.069 188.337,217.402 185.5,215.5C 188.113,216.435 190.779,216.602 193.5,216C 194.078,214.583 195.078,213.75 196.5,213.5 Z"/></g>
<g><path style="opacity:1" fill="#d1e1ee" d="M 161.5,210.5 C 161.665,213.85 161.498,217.183 161,220.5C 160.626,222.491 159.793,224.158 158.5,225.5C 159.588,220.397 160.588,215.397 161.5,210.5 Z"/></g>
<g><path style="opacity:1" fill="#e6f9fa" d="M 222.5,203.5 C 223.477,206.287 223.81,209.287 223.5,212.5C 222.542,212.953 221.708,213.619 221,214.5C 220.751,217.177 219.751,219.51 218,221.5C 215.707,219.51 213.374,217.51 211,215.5C 209.748,212.986 209.248,210.32 209.5,207.5C 209.833,207.5 210.167,207.5 210.5,207.5C 211.758,209.981 213.092,212.481 214.5,215C 215.793,215.49 217.127,215.657 218.5,215.5C 218.517,213.435 218.85,211.435 219.5,209.5C 220.931,208.22 221.598,206.553 221.5,204.5C 222.167,204.5 222.5,204.167 222.5,203.5 Z"/></g>
<g><path style="opacity:1" fill="#c9d7de" d="M 79.5,199.5 C 79.5,205.167 79.5,210.833 79.5,216.5C 80.1495,218.435 80.4828,220.435 80.5,222.5C 78.0503,218.637 77.0503,214.303 77.5,209.5C 77.6667,206.833 77.8333,204.167 78,201.5C 78.2784,200.584 78.7784,199.918 79.5,199.5 Z"/></g>
<g><path style="opacity:1" fill="#b6cbdb" d="M 91.5,215.5 C 92.4918,217.456 93.4918,219.456 94.5,221.5C 93.8333,221.167 93.1667,220.833 92.5,220.5C 91.6993,218.958 91.366,217.292 91.5,215.5 Z"/></g>
<g><path style="opacity:1" fill="#96b0c5" d="M 79.5,216.5 C 81.3502,220.037 83.0169,223.703 84.5,227.5C 84.5,228.167 84.5,228.833 84.5,229.5C 82.9862,227.636 81.6528,225.636 80.5,223.5C 80.5,223.167 80.5,222.833 80.5,222.5C 80.4828,220.435 80.1495,218.435 79.5,216.5 Z"/></g>
<g><path style="opacity:1" fill="#95a9b7" d="M 147.5,220.5 C 147.573,222.027 146.906,223.027 145.5,223.5C 145.5,222.833 145.5,222.167 145.5,221.5C 146.167,221.167 146.833,220.833 147.5,220.5 Z"/></g>
<g><path style="opacity:1" fill="#9ab9ce" d="M 145.5,223.5 C 145.5,224.167 145.5,224.833 145.5,225.5C 144.833,225.5 144.167,225.5 143.5,225.5C 143.5,224.167 144.167,223.5 145.5,223.5 Z"/></g>
<g><path style="opacity:1" fill="#87a4b5" d="M 92.5,220.5 C 93.1667,220.833 93.8333,221.167 94.5,221.5C 94.3284,222.492 94.6618,223.158 95.5,223.5C 97.0908,226.431 99.0908,229.098 101.5,231.5C 96.6359,229.308 93.6359,225.641 92.5,220.5 Z"/></g>
<g><path style="opacity:1" fill="#b6cbd5" d="M 143.5,225.5 C 143.5,226.167 143.5,226.833 143.5,227.5C 142.5,228.167 141.5,228.833 140.5,229.5C 140.738,227.596 141.738,226.262 143.5,225.5 Z"/></g>
<g><path style="opacity:1" fill="#5489af" d="M 151.5,229.5 C 149.416,232.59 146.749,234.923 143.5,236.5C 143.5,237.5 143.5,238.5 143.5,239.5C 142.167,239.5 140.833,239.5 139.5,239.5C 137.801,239.66 136.134,239.494 134.5,239C 139.57,236.653 142.57,232.82 143.5,227.5C 143.5,226.833 143.5,226.167 143.5,225.5C 144.167,225.5 144.833,225.5 145.5,225.5C 144.321,227.507 144.821,227.84 147,226.5C 147.847,224.146 148.68,221.812 149.5,219.5C 150.584,217.681 151.918,216.015 153.5,214.5C 153.833,216 154.167,217.5 154.5,219C 154.222,222.719 153.222,226.219 151.5,229.5 Z"/></g>
<g><path style="opacity:1" fill="#eaf6f9" d="M 80.5,223.5 C 81.6528,225.636 82.9862,227.636 84.5,229.5C 84.3284,230.492 84.6618,231.158 85.5,231.5C 86.0798,233.749 87.4131,235.415 89.5,236.5C 91.2459,238.252 93.2459,239.585 95.5,240.5C 95.5,240.833 95.5,241.167 95.5,241.5C 95.5,241.833 95.5,242.167 95.5,242.5C 86.0824,239.74 81.0824,233.407 80.5,223.5 Z"/></g>
<g><path style="opacity:1" fill="#acc4d3" d="M 85.5,231.5 C 87.5869,232.585 88.9202,234.251 89.5,236.5C 87.4131,235.415 86.0798,233.749 85.5,231.5 Z"/></g>
<g><path style="opacity:1" fill="#ebf6fb" d="M 95.5,223.5 C 99.7704,224.585 103.104,227.085 105.5,231C 107.473,231.495 109.473,231.662 111.5,231.5C 111.5,232.5 111.5,233.5 111.5,234.5C 118.93,234.654 126.263,233.987 133.5,232.5C 132.025,234.41 130.025,235.576 127.5,236C 122.177,236.499 116.844,236.666 111.5,236.5C 110.486,235.326 109.153,234.66 107.5,234.5C 105.181,234.008 103.181,233.008 101.5,231.5C 99.0908,229.098 97.0908,226.431 95.5,223.5 Z"/></g>
<g><path style="opacity:1" fill="#9cbcd5" d="M 107.5,234.5 C 109.153,234.66 110.486,235.326 111.5,236.5C 109.62,236.771 108.287,236.104 107.5,234.5 Z"/></g>
<g><path style="opacity:1" fill="#99b6ca" d="M 138.5,231.5 C 136.181,234.294 133.181,236.128 129.5,237C 123.509,237.499 117.509,237.666 111.5,237.5C 111.5,237.167 111.5,236.833 111.5,236.5C 116.844,236.666 122.177,236.499 127.5,236C 130.025,235.576 132.025,234.41 133.5,232.5C 135.216,232.371 136.883,232.038 138.5,231.5 Z"/></g>
<g><path style="opacity:1" fill="#b9ceda" d="M 158.5,225.5 C 155.699,233.304 150.699,239.304 143.5,243.5C 148.983,238.687 153.317,233.02 156.5,226.5C 157.167,226.167 157.833,225.833 158.5,225.5 Z"/></g>
<g><path style="opacity:1" fill="#5c89aa" d="M 143.5,227.5 C 142.57,232.82 139.57,236.653 134.5,239C 136.134,239.494 137.801,239.66 139.5,239.5C 138.369,242.393 136.369,244.393 133.5,245.5C 133.414,244.504 133.748,243.671 134.5,243C 133.333,242.833 132.167,242.667 131,242.5C 124.506,242.58 118.006,242.58 111.5,242.5C 110.092,241.757 108.759,240.923 107.5,240C 109.437,239.878 110.77,239.045 111.5,237.5C 117.509,237.666 123.509,237.499 129.5,237C 133.181,236.128 136.181,234.294 138.5,231.5C 138.5,230.167 139.167,229.5 140.5,229.5C 141.5,228.833 142.5,228.167 143.5,227.5 Z"/></g>
<g><path style="opacity:1" fill="#648ba6" d="M 157.5,223.5 C 156.89,224.391 156.557,225.391 156.5,226.5C 153.317,233.02 148.983,238.687 143.5,243.5C 141.447,243.402 139.78,244.069 138.5,245.5C 136.973,245.427 135.973,246.094 135.5,247.5C 132.627,247.802 129.961,248.469 127.5,249.5C 122.156,249.666 116.823,249.499 111.5,249C 109.942,248.79 108.609,248.29 107.5,247.5C 116.293,247.961 124.96,247.295 133.5,245.5C 136.369,244.393 138.369,242.393 139.5,239.5C 140.833,239.5 142.167,239.5 143.5,239.5C 143.5,238.5 143.5,237.5 143.5,236.5C 146.749,234.923 149.416,232.59 151.5,229.5C 153.188,227.146 155.188,225.146 157.5,223.5 Z"/></g>
<g><path style="opacity:1" fill="#7091a9" d="M 95.5,242.5 C 95.5,242.167 95.5,241.833 95.5,241.5C 100.662,241.428 104.662,243.428 107.5,247.5C 103.516,245.843 99.5163,244.176 95.5,242.5 Z"/></g>
<g><path style="opacity:1" fill="#9dbfd5" d="M 143.5,243.5 C 142.22,244.931 140.553,245.598 138.5,245.5C 139.78,244.069 141.447,243.402 143.5,243.5 Z"/></g>
<g><path style="opacity:1" fill="#5788ae" d="M 111.5,237.5 C 110.77,239.045 109.437,239.878 107.5,240C 108.759,240.923 110.092,241.757 111.5,242.5C 118.006,242.58 124.506,242.58 131,242.5C 132.167,242.667 133.333,242.833 134.5,243C 133.748,243.671 133.414,244.504 133.5,245.5C 124.96,247.295 116.293,247.961 107.5,247.5C 104.662,243.428 100.662,241.428 95.5,241.5C 95.5,241.167 95.5,240.833 95.5,240.5C 95.5,239.5 95.5,238.5 95.5,237.5C 100.754,237.084 106.087,237.084 111.5,237.5 Z"/></g>
<g><path style="opacity:1" fill="#d7e8f1" d="M 95.5,242.5 C 99.5163,244.176 103.516,245.843 107.5,247.5C 108.609,248.29 109.942,248.79 111.5,249C 116.823,249.499 122.156,249.666 127.5,249.5C 124.913,250.816 121.913,251.483 118.5,251.5C 110.575,250.804 102.908,249.137 95.5,246.5C 95.5,245.167 95.5,243.833 95.5,242.5 Z"/></g>
<g><path style="opacity:1" fill="#a2bccd" d="M 138.5,245.5 C 138.027,246.906 137.027,247.573 135.5,247.5C 135.973,246.094 136.973,245.427 138.5,245.5 Z"/></g>
<g><path style="opacity:1" fill="#b6cbd8" d="M 135.5,247.5 C 133.22,249.223 130.553,249.889 127.5,249.5C 129.961,248.469 132.627,247.802 135.5,247.5 Z"/></g>
</svg>
